<?xml version="1.0" encoding="UTF-8" standalone="no"?>
<svg width="400px" height="400px" viewBox="0 0 400 400" version="1.1" xmlns="http://www.w3.org/2000/svg" xmlns:xlink="http://www.w3.org/1999/xlink">
    <!-- Generator: Sketch 40.2 (33826) - http://www.bohemiancoding.com/sketch -->
    <title>apple_outline</title>
    <desc>Created with Sketch.</desc>
    <defs></defs>
    <g id="Page-2" stroke="none" stroke-width="1" fill="none" fill-rule="evenodd">
        <g id="Apple" transform="translate(0.000000, -401.000000)" stroke="#000000" stroke-width="3">
            <g id="apple-(outline)" transform="translate(82.000000, 485.000000)">
                <path d="M119.018374,58.1712683 C124.156724,58.4254882 130.095644,58.4644661 138.034337,59.2465103 C144.366506,59.8702951 153.181553,59.8391505 161.034337,61.7465103 C167.737987,63.3747574 173.446195,66.6652501 179.534337,70.2465103 C205.034337,85.2465103 214.534337,109.24651 217.534337,128.24651 C220.534337,147.24651 216.034337,173.74651 200.534337,203.74651 C185.034337,233.74651 172.534337,240.74651 163.534337,247.24651 C154.534337,253.74651 146.034337,257.24651 118.534337,259.24651 C91.034337,261.24651 57,256.493021 45,247.24651 C33,238 25.9064294,237.24651 6.53433704,182.24651 C-12.8377553,127.24651 17.034337,88.7465103 17.034337,88.7465103 C17.034337,88.7465103 29.0116754,67.5386993 58.034337,59.2465103 C65.5805213,57.0904576 72.0019269,57.668959 80.034337,57.7465103 C86.9039938,57.8128354 96.034337,57.2465103 96.034337,57.2465103 L96.1377445,57.2465103 C94.0795985,52.552012 89.8746727,45.7756363 81.5,40 C74.3025109,35.0362144 89,35 89,35 C89,35 93,39.5 95.5,42 C96.5949307,43.0949307 100.360443,47.1652425 102,51.5 C102.738961,53.4537094 103.205558,55.4536596 103.499954,57.2263626 C104.73425,57.1855227 108.353884,57.1427952 113.534337,57.7465103 C114.023733,57.803543 114.516941,57.8543822 115.015308,57.9001043 C116.562217,56.5716728 118.040194,55.0574216 119,53.5 C124.939122,43.8629349 124.5,33.5 135,19.5 C135,19.5 162.5,-13 227.5,8 C230.850791,9.08256313 221.5,20 221.5,20 C221.5,20 219.604643,22.8944067 217,27 C213.431075,32.6255509 207.332424,40.5817759 192,47 C183.783919,50.4392896 174.657662,50.2487199 167,51 C154.618943,52.2146843 124.5,53.5 124.5,53.5 C124.5,53.5 121.812822,55.8182838 119.018377,58.1712658 Z" id="Combined-Shape"></path>
                <path d="M122,54 C122,54 163.5,25.5 201.5,20.5 C203.886367,20.1860044 211.178423,14.5803943 217.5,13 C223.5,11.5 222.5,11 226,9.5" id="vein"></path>
            </g>
        </g>
    </g>
</svg>