<?xml version="1.0" encoding="UTF-8" standalone="no"?>
<svg width="400px" height="400px" viewBox="0 0 400 400" version="1.1" xmlns="http://www.w3.org/2000/svg" xmlns:xlink="http://www.w3.org/1999/xlink">
    <!-- Generator: Sketch 40.2 (33826) - http://www.bohemiancoding.com/sketch -->
    <title>apple_color</title>
    <desc>Created with Sketch.</desc>
    <defs>
        <radialGradient cx="63.3270034%" cy="32.1397491%" fx="63.3270034%" fy="32.1397491%" r="23.9054879%" id="radialGradient-1">
            <stop stop-color="#D4948B" offset="0%"></stop>
            <stop stop-color="#E70000" offset="100%"></stop>
        </radialGradient>
        <linearGradient x1="62.3992238%" y1="36.3218927%" x2="5.77328336%" y2="49.8058976%" id="linearGradient-2">
            <stop stop-color="#FFFFFF" stop-opacity="0.5" offset="0%"></stop>
            <stop stop-color="#B74D11" offset="100%"></stop>
        </linearGradient>
        <path d="M45,247.24651 C33,238 25.9064294,237.24651 6.53433704,182.24651 C-12.8377553,127.24651 17.034337,88.7465103 17.034337,88.7465103 C17.034337,88.7465103 29.0116754,67.5386993 58.034337,59.2465103 C65.5805213,57.0904576 72.0019269,57.668959 80.034337,57.7465103 C86.9039938,57.8128354 96.034337,57.2465103 96.034337,57.2465103 C96.034337,57.2465103 96.644778,63.2465103 97.534337,63.2465103 C98.3605289,63.2465103 103.246818,64.9274033 104.534337,63.2465103 C105.496764,61.9900344 103.034337,57.2465103 103.034337,57.2465103 C103.034337,57.2465103 111.508907,56.4392091 113.534337,57.7465103 C114.429432,58.3242438 106.492687,62.6683916 108.034337,63.2465103 C112.034337,64.7465103 120.534337,57.7465103 120.534337,57.7465103 C120.534337,57.7465103 127.131061,58.1724236 138.034337,59.2465103 C144.366506,59.8702951 153.181553,59.8391505 161.034337,61.7465103 C167.737987,63.3747574 173.446195,66.6652501 179.534337,70.2465103 C205.034337,85.2465103 214.534337,109.24651 217.534337,128.24651 C220.534337,147.24651 216.034337,173.74651 200.534337,203.74651 C185.034337,233.74651 172.534337,240.74651 163.534337,247.24651 C154.534337,253.74651 146.034337,257.24651 118.534337,259.24651 C91.034337,261.24651 57,256.493021 45,247.24651 Z" id="path-3"></path>
    </defs>
    <g id="Page-2" stroke="none" stroke-width="1" fill="none" fill-rule="evenodd">
        <g id="Apple" transform="translate(0.000000, -1.000000)">
            <g id="apple-(color)" transform="translate(82.000000, 95.000000)">
                <g id="apple">
                    <use fill="url(#radialGradient-1)" xlink:href="#path-3"></use>
                    <use fill-opacity="0.569999993" fill="url(#linearGradient-2)" xlink:href="#path-3"></use>
                </g>
                <path d="M98,63 C98,63 96,50 81.5,40 C74.3025109,35.0362144 89,35 89,35 C89,35 93,39.5 95.5,42 C96.5949307,43.0949307 100.360443,47.1652425 102,51.5 C104.103961,57.0625753 104,63 104,63 L98,63 Z" id="stem" fill="#9E6D4C"></path>
                <g id="leaf" transform="translate(108.000000, 0.000000)">
                    <path d="M0.5,62.5 C0.5,62.5 8.10578817,58.1962683 11,53.5 C16.9391215,43.8629349 16.5,33.5 27,19.5 C27,19.5 54.5,-13 119.5,8 C122.850791,9.08256313 113.5,20 113.5,20 C113.5,20 111.604643,22.8944067 109,27 C105.431075,32.6255509 99.3324243,40.5817759 84,47 C75.7839193,50.4392896 66.6576618,50.2487199 59,51 C46.6189432,52.2146843 16.5,53.5 16.5,53.5 C16.5,53.5 6.40325807,62.2106673 5,63 C3.59674193,63.7893327 0.5,62.5 0.5,62.5 Z" stroke="#979797" fill="#54620A"></path>
                    <path d="M14,54 C14,54 55.5,25.5 93.5,20.5 C95.8863667,20.1860044 103.178423,14.5803943 109.5,13 C115.5,11.5 114.5,11 118,9.5" id="vein" stroke="#8E941E"></path>
                </g>
            </g>
        </g>
    </g>
</svg>