<?xml version="1.0" encoding="UTF-8" standalone="no"?>
<svg width="400px" height="400px" viewBox="0 0 400 400" version="1.1" xmlns="http://www.w3.org/2000/svg" xmlns:xlink="http://www.w3.org/1999/xlink">
    <!-- Generator: Sketch 40.2 (33826) - http://www.bohemiancoding.com/sketch -->
    <title>beans_outline</title>
    <desc>Created with Sketch.</desc>
    <defs>
        <linearGradient x1="84.1267485%" y1="8.51435442%" x2="-5.00244135%" y2="95.7145281%" id="linearGradient-1">
            <stop stop-color="#F4D587" offset="0%"></stop>
            <stop stop-color="#AE760B" offset="100%"></stop>
        </linearGradient>
        <path d="M57.2810978,58.9979353 C69.1342119,52.9031102 81.8982245,52.2321193 90.1039334,52.2321193 C98.3096424,52.2321193 122.926769,57.8702993 136.993699,57.8702993 L162.78307,57.8702993 C172.161023,57.8702993 182.71122,52.2321193 193.261417,49.9768473 C203.811614,47.7215752 282.827174,43.1689786 281.519701,109.741556 C279.172166,168.378628 198.003732,189.564665 187.618286,192.058984 C173.533074,195.441892 157.100326,195.441892 134.64921,194.314256 C112.198095,193.18662 26.8027504,175.144444 19.7692856,106.358648 C16.6582642,75.9335163 45.4279837,65.0927604 57.2810978,58.9979353 Z" id="path-2"></path>
        <filter x="-50%" y="-50%" width="200%" height="200%" filterUnits="objectBoundingBox" id="filter-4">
            <feGaussianBlur stdDeviation="2.5" in="SourceAlpha" result="shadowBlurInner1"></feGaussianBlur>
            <feOffset dx="0" dy="-1" in="shadowBlurInner1" result="shadowOffsetInner1"></feOffset>
            <feComposite in="shadowOffsetInner1" in2="SourceAlpha" operator="arithmetic" k2="-1" k3="1" result="shadowInnerInner1"></feComposite>
            <feColorMatrix values="0 0 0 0 0   0 0 0 0 0   0 0 0 0 0  0 0 0 0.5 0" type="matrix" in="shadowInnerInner1"></feColorMatrix>
        </filter>
    </defs>
    <g id="Page-2" stroke="none" stroke-width="1" fill="none" fill-rule="evenodd">
        <g id="Beans" transform="translate(0.000000, -401.000000)">
            <g id="beans-(color)" transform="translate(13.000000, 139.000000)">
                <g id="bean2" transform="translate(261.034278, 139.889604) rotate(-7.000000) translate(-261.034278, -139.889604) translate(110.524670, 18.296538)">
                    <mask id="mask-3" fill="white">
                        <use xlink:href="#path-2"></use>
                    </mask>
                    <g id="Path-82" transform="translate(150.535666, 121.960353) rotate(-25.000000) translate(-150.535666, -121.960353) ">
                        <use fill="url(#linearGradient-1)" fill-rule="evenodd" xlink:href="#path-2"></use>
                        <use fill="black" fill-opacity="1" filter="url(#filter-4)" xlink:href="#path-2"></use>
                    </g>
                </g>
            </g>
            <g id="beans-(outline)" transform="translate(21.000000, 554.000000)" stroke="#000000" stroke-width="3">
                <g id="bean1" transform="translate(0.000000, 0.039823)">
                    <path d="M38.6853589,70.4858063 C50.4720106,65.9752623 63.3024857,63.7199903 71.5081946,63.7199903 C79.7139035,63.7199903 104.33103,69.3581703 118.39796,69.3581703 L144.187331,69.3581703 C153.565284,69.3581703 164.115481,63.7199903 174.665678,61.4647183 C185.215875,59.2094462 264.231435,54.6568496 262.923962,121.229427 C260.576427,179.866499 179.407993,201.052536 169.022547,203.546855 C154.937335,206.929763 138.504587,206.929763 116.053472,205.802127 C93.6023558,204.674491 8.20701154,186.632315 1.17354676,117.846519 C-1.9374747,87.4213873 26.8987072,74.9963503 38.6853589,70.4858063 Z" id="Path-82" fill="#FFFFFF"></path>
                    <path d="M165.083472,67.8633065 C176.936586,61.7684814 189.700599,61.0974905 197.906307,61.0974905 C206.112016,61.0974905 230.729143,66.7356705 244.796073,66.7356705 L270.585444,66.7356705 C279.963397,66.7356705 290.513594,61.0974905 301.063791,58.8422184 C311.613988,56.5869464 390.629548,52.0343498 389.322075,118.606927 C386.97454,177.243999 305.806106,198.430037 295.42066,200.924355 C281.335448,204.307263 264.9027,204.307263 242.451584,203.179627 C220.000469,202.051991 134.605124,184.009815 127.57166,115.224019 C124.460638,84.7988875 153.230358,73.9581316 165.083472,67.8633065 Z" id="Path-82" fill="#FFFFFF" transform="translate(258.338040, 130.825724) rotate(-31.000000) translate(-258.338040, -130.825724) "></path>
                    <path d="M117.036691,71.0152795 C106.907226,72.0832931 93.4012727,73.1513067 96.7777611,76.3553475 C100.154249,79.5593883 128.854401,81.6954155 133.919133,81.6954155 C138.983866,81.6954155 159.242796,82.7634291 165.995772,76.3553475 C172.748749,69.9472659 127.166156,69.9472659 117.036691,71.0152795 Z" id="Path-83"></path>
                </g>
                <g id="bean2" transform="translate(233.511061, 78.149334) rotate(-7.000000) translate(-233.511061, -78.149334) translate(198.978554, 56.159099)">
                    <path d="M20.2841983,17.2080861 C10.1547332,18.2760997 -3.35122027,19.3441133 0.0252680918,22.5481541 C3.40175645,25.7521949 32.1019075,27.8882221 37.1666401,27.8882221 C42.2313726,27.8882221 62.4903028,28.9562357 69.2432795,22.5481541 C75.9962562,16.1400724 30.4136633,16.1400724 20.2841983,17.2080861 Z" id="Path-83" transform="translate(34.709488, 22.316793) rotate(-28.000000) translate(-34.709488, -22.316793) "></path>
                </g>
            </g>
        </g>
    </g>
</svg>