<?xml version="1.0" encoding="UTF-8" standalone="no"?>
<svg width="400px" height="400px" viewBox="0 0 400 400" version="1.1" xmlns="http://www.w3.org/2000/svg" xmlns:xlink="http://www.w3.org/1999/xlink">
    <!-- Generator: Sketch 40.2 (33826) - http://www.bohemiancoding.com/sketch -->
    <title>strawberry color slice</title>
    <desc>Created with Sketch.</desc>
    <defs>
        <linearGradient x1="30.4827322%" y1="45.7528532%" x2="75.47767%" y2="89.5149075%" id="linearGradient-1">
            <stop stop-color="#E13838" offset="0%"></stop>
            <stop stop-color="#D12C2C" offset="39.1104693%"></stop>
            <stop stop-color="#CA1919" offset="64.4284774%"></stop>
            <stop stop-color="#AB1919" offset="100%"></stop>
        </linearGradient>
        <path d="M2.69474618,207.413701 C-9.59574578,175.459575 24.3305431,99.9243269 52.9208719,54.8188599 C75.6118637,19.0204685 87.2822999,10.3663922 124.242802,1.20176253 C154.068336,-6.19369918 204.989674,31.3381539 227.034634,70.5976594 C237.806752,89.781546 246.138464,171.297382 172.223009,199.030363 C154.122477,205.821659 136.042791,213.226549 118.735448,219.695607 C65.3664079,239.643637 19.3413021,250.693185 2.69474618,207.413701 Z" id="path-2"></path>
        <linearGradient x1="41.7390784%" y1="41.7390784%" x2="98.8957642%" y2="98.8957642%" id="linearGradient-4">
            <stop stop-color="#B22626" offset="0%"></stop>
            <stop stop-color="#D04040" offset="100%"></stop>
        </linearGradient>
        <filter x="-50%" y="-50%" width="200%" height="200%" filterUnits="objectBoundingBox" id="filter-5">
            <feGaussianBlur stdDeviation="8.21920956" in="SourceGraphic"></feGaussianBlur>
        </filter>
    </defs>
    <g id="Page-2" stroke="none" stroke-width="1" fill="none" fill-rule="evenodd">
        <g id="Artboard-4" transform="translate(-1574.000000, -12.000000)">
            <g id="strawberry-(color)" transform="translate(1627.000000, 99.000000)">
                <path d="M189.08092,110.931926 C189.08092,65.9295161 154.769935,43.5024149 156.661861,24.0352505 C156.740819,23.2228013 156.485115,10.9879082 156.661861,10.1597827 C157.841175,4.63421297 157.957694,3.15935115 160.773131,4.40606088 C165.888329,6.67113376 172.947447,17.919869 179.201876,30.1811339 C185.221954,41.9829726 190.87771,54.3640282 194.999836,67.7211673 C197.402965,75.5081535 199.06599,80.564311 198.510494,92.7478562 C216.598174,66.959255 186.328637,44.4459452 196.861494,18.4886543 C197.242123,17.5506269 198.02002,5.3384537 198.510494,4.40606088 C201.179017,-0.666820518 200.91287,-1.20607472 203.345306,4.40606088 C208.099335,15.3745956 216.382579,34.1516581 219.57444,55.4659628 C220.454169,61.3405383 222.273686,68.0700521 222.213198,74.1851316 C222.120996,83.5064217 219.762281,91.4087778 219.57444,92.7478562 C219.000693,96.8379708 211.481686,103.833272 214.308453,102.758532 C231.699599,96.1463951 234.332074,86.7833498 244.841701,82.7371807 C250.671246,80.4928264 262.145639,78.7096699 272.234305,82.7371807 C279.111961,85.4828192 298.008958,82.7371807 289.712169,90.5944059 C278.703989,101.019373 265.01185,103.778949 252.622275,110.931926 C243.135326,116.409105 203.080983,111.49791 231.188613,118.928269 C247.881731,123.341158 276.659202,111.131976 278.557523,110.931926 C298.751284,108.803846 301.535873,130.674877 303.228426,138.110247 C303.383683,138.792288 291.654822,138.110247 276.22335,134.273852 C260.791878,130.437456 233.271169,127.450112 226.071066,130.437456 C211.884292,136.323589 195.208121,131.125003 191.350254,130.437456 L189.08092,110.931926 Z" id="Path-20" fill="#314D22"></path>
                <g id="Path-9" transform="translate(0.000000, 69.055124)">
                    <mask id="mask-3" fill="white">
                        <use xlink:href="#path-2"></use>
                    </mask>
                    <use id="Mask" fill="url(#linearGradient-1)" xlink:href="#path-2"></use>
                    <path d="M6.98485559,207.079451 C-4.19925779,175.858748 26.6730184,102.057213 52.6896725,57.987024 C73.3380425,23.0102907 83.9142765,18.3357255 116.507614,5.37095406 C135.796954,-2.30183746 162.80203,5.60056629 193.664975,36.0621201 C208.08611,50.2957005 89.0895324,159.284488 73.3401805,165.605066 C24.7753714,185.095242 22.1329042,249.365568 6.98485559,207.079451 Z" fill-opacity="0.949999988" fill="url(#linearGradient-4)" opacity="0.867887127" filter="url(#filter-5)" mask="url(#mask-3)"></path>
                </g>
                <path d="M24.9895539,210.692778 L27.27174,208.274861 L25.6793095,206.715615 L23.3971234,209.133532 L24.9895539,210.692778 Z M38.0283353,212.273298 L40.3105214,209.855381 L38.7180909,208.296135 L36.4359048,210.714052 L38.0283353,212.273298 Z M23.3366044,223.983085 L25.6187905,221.565168 L24.0263601,220.005922 L21.744174,222.423839 L23.3366044,223.983085 Z M36.3753858,225.563605 L38.6575719,223.145688 L37.0651415,221.586441 L34.7829554,224.004359 L36.3753858,225.563605 Z M62.6144858,226.484259 L64.8966719,224.066341 L63.3042414,222.507095 L61.0220553,224.925012 L62.6144858,226.484259 Z M75.6532672,228.064779 L77.9354533,225.646861 L76.3430228,224.087615 L74.0608367,226.505532 L75.6532672,228.064779 Z M60.9615363,239.774566 L63.2437224,237.356648 L61.651292,235.797402 L59.3691059,238.215319 L60.9615363,239.774566 Z M74.0003177,241.355085 L76.2825038,238.937168 L74.6900734,237.377922 L72.4078873,239.795839 L74.0003177,241.355085 Z M58.1880232,188.13352 L60.4702093,185.715603 L58.8777789,184.156357 L56.5955927,186.574274 L58.1880232,188.13352 Z M71.2268046,189.71404 L73.5089907,187.296123 L71.9165603,185.736877 L69.6343741,188.154794 L71.2268046,189.71404 Z M56.5350737,201.423827 L58.8172599,199.00591 L57.2248294,197.446664 L54.9426433,199.864581 L56.5350737,201.423827 Z M69.5738551,203.004347 L71.8560412,200.58643 L70.2636108,199.027184 L67.9814247,201.445101 L69.5738551,203.004347 Z M94.563574,196.955639 L96.8457601,194.537722 L95.2533296,192.978475 L92.9711435,195.396393 L94.563574,196.955639 Z M107.602355,198.536159 L109.884541,196.118242 L108.292111,194.558995 L106.009925,196.976913 L107.602355,198.536159 Z M92.9106245,210.245946 L95.1928106,207.828029 L93.6003802,206.268782 L91.3181941,208.6867 L92.9106245,210.245946 Z M105.949406,211.826466 L108.231592,209.408549 L106.639162,207.849302 L104.356975,210.26722 L105.949406,211.826466 Z M132.188506,212.74712 L134.470692,210.329202 L132.878262,208.769956 L130.596075,211.187873 L132.188506,212.74712 Z M145.227287,214.327639 L147.509473,211.909722 L145.917043,210.350476 L143.634857,212.768393 L145.227287,214.327639 Z M130.535556,226.037426 L132.817743,223.619509 L131.225312,222.060263 L128.943126,224.47818 L130.535556,226.037426 Z M143.574338,227.617946 L145.856524,225.200029 L144.264093,223.640783 L141.981907,226.0587 L143.574338,227.617946 Z M127.762043,174.396381 L130.044229,171.978464 L128.451799,170.419218 L126.169613,172.837135 L127.762043,174.396381 Z M140.800825,175.976901 L143.083011,173.558984 L141.49058,171.999738 L139.208394,174.417655 L140.800825,175.976901 Z M126.109094,187.686688 L128.39128,185.268771 L126.79885,183.709525 L124.516663,186.127442 L126.109094,187.686688 Z M139.147875,189.267208 L141.430061,186.849291 L139.837631,185.290044 L137.555445,187.707962 L139.147875,189.267208 Z M52.8191619,142.007083 L55.101348,139.589165 L53.5089176,138.029919 L51.2267315,140.447836 L52.8191619,142.007083 Z M65.8579433,143.587603 L68.1401294,141.169685 L66.547699,139.610439 L64.2655129,142.028356 L65.8579433,143.587603 Z M51.1662125,155.29739 L53.4483986,152.879472 L51.8559681,151.320226 L49.573782,153.738143 L51.1662125,155.29739 Z M64.2049939,156.877909 L66.48718,154.459992 L64.8947495,152.900746 L62.6125634,155.318663 L64.2049939,156.877909 Z M90.4440938,157.798563 L92.7262799,155.380646 L91.1338495,153.8214 L88.8516634,156.239317 L90.4440938,157.798563 Z M103.482875,159.379083 L105.765061,156.961166 L104.172631,155.401919 L101.890445,157.819837 L103.482875,159.379083 Z M88.7911444,171.08887 L91.0733305,168.670953 L89.4809,167.111707 L87.1987139,169.529624 L88.7911444,171.08887 Z M101.829926,172.66939 L104.112112,170.251473 L102.519681,168.692226 L100.237495,171.110144 L101.829926,172.66939 Z M86.0176312,119.447825 L88.2998173,117.029908 L86.7073869,115.470661 L84.4252008,117.888578 L86.0176312,119.447825 Z M99.0564126,121.028345 L101.338599,118.610427 L99.7461683,117.051181 L97.4639822,119.469098 L99.0564126,121.028345 Z M84.3646818,132.738132 L86.6468679,130.320214 L85.0544374,128.760968 L82.7722513,131.178885 L84.3646818,132.738132 Z M97.4034632,134.318652 L99.6856493,131.900734 L98.0932188,130.341488 L95.8110327,132.759405 L97.4034632,134.318652 Z M11.0747499,265.641335 L13.356936,263.223417 L11.7645055,261.664171 L9.48231941,264.082088 L11.0747499,265.641335 Z M24.1135312,267.221854 L26.3957174,264.803937 L24.8032869,263.244691 L22.5211008,265.662608 L24.1135312,267.221854 Z M9.42180041,278.931642 L11.7039865,276.513724 L10.1115561,274.954478 L7.82936997,277.372395 L9.42180041,278.931642 Z M22.4605818,280.512161 L24.7427679,278.094244 L23.1503375,276.534998 L20.8681514,278.952915 L22.4605818,280.512161 Z M48.6996817,281.432815 L50.9818679,279.014898 L49.3894374,277.455652 L47.1072513,279.873569 L48.6996817,281.432815 Z M61.7384631,283.013335 L64.0206492,280.595418 L62.4282188,279.036171 L60.1460327,281.454089 L61.7384631,283.013335 Z M47.0467323,294.723122 L49.3289184,292.305205 L47.736488,290.745958 L45.4543019,293.163876 L47.0467323,294.723122 Z M60.0855137,296.303642 L62.3676998,293.885725 L60.7752694,292.326478 L58.4930833,294.744396 L60.0855137,296.303642 Z M44.2732192,243.082077 L46.5554053,240.664159 L44.9629748,239.104913 L42.6807887,241.52283 L44.2732192,243.082077 Z M57.3120006,244.662597 L59.5941867,242.244679 L58.0017562,240.685433 L55.7195701,243.10335 L57.3120006,244.662597 Z M42.6202697,256.372384 L44.9024558,253.954466 L43.3100254,252.39522 L41.0278393,254.813137 L42.6202697,256.372384 Z M55.6590511,257.952904 L57.9412372,255.534986 L56.3488068,253.97574 L54.0666207,256.393657 L55.6590511,257.952904 Z M80.6487699,251.904195 L82.9309561,249.486278 L81.3385256,247.927032 L79.0563395,250.344949 L80.6487699,251.904195 Z M93.6875513,253.484715 L95.9697375,251.066798 L94.377307,249.507552 L92.0951209,251.925469 L93.6875513,253.484715 Z M78.9958205,265.194502 L81.2780066,262.776585 L79.6855762,261.217339 L77.4033901,263.635256 L78.9958205,265.194502 Z M92.0346019,266.775022 L94.316788,264.357105 L92.7243576,262.797859 L90.4421715,265.215776 L92.0346019,266.775022 Z M118.273702,267.695676 L120.555888,265.277759 L118.963458,263.718512 L116.681271,266.13643 L118.273702,267.695676 Z M131.312483,269.276196 L133.594669,266.858279 L132.002239,265.299032 L129.720053,267.71695 L131.312483,269.276196 Z M116.620752,280.985983 L118.902939,278.568066 L117.310508,277.008819 L115.028322,279.426737 L116.620752,280.985983 Z M129.659534,282.566503 L131.94172,280.148586 L130.349289,278.589339 L128.067103,281.007257 L129.659534,282.566503 Z M113.847239,229.344938 L116.129425,226.92702 L114.536995,225.367774 L112.254809,227.785691 L113.847239,229.344938 Z M126.886021,230.925458 L129.168207,228.50754 L127.575776,226.948294 L125.29359,229.366211 L126.886021,230.925458 Z M112.19429,242.635245 L114.476476,240.217327 L112.884045,238.658081 L110.601859,241.075998 L112.19429,242.635245 Z M125.233071,244.215764 L127.515257,241.797847 L125.922827,240.238601 L123.640641,242.656518 L125.233071,244.215764 Z M122.393182,128.269943 L124.675368,125.852026 L123.082938,124.29278 L120.800752,126.710697 L122.393182,128.269943 Z M135.431963,129.850463 L137.71415,127.432546 L136.121719,125.8733 L133.839533,128.291217 L135.431963,129.850463 Z M120.740233,141.56025 L123.022419,139.142333 L121.429988,137.583087 L119.147802,140.001004 L120.740233,141.56025 Z M133.779014,143.14077 L136.0612,140.722853 L134.46877,139.163607 L132.186584,141.581524 L133.779014,143.14077 Z M160.018114,144.061424 L162.3003,141.643507 L160.70787,140.08426 L158.425683,142.502178 L160.018114,144.061424 Z M173.056895,145.641944 L175.339081,143.224027 L173.746651,141.66478 L171.464465,144.082698 L173.056895,145.641944 Z M158.365164,157.351731 L160.647351,154.933814 L159.05492,153.374567 L156.772734,155.792485 L158.365164,157.351731 Z M171.403946,158.932251 L173.686132,156.514334 L172.093702,154.955087 L169.811515,157.373005 L171.403946,158.932251 Z M155.591651,105.710686 L157.873837,103.292768 L156.281407,101.733522 L153.999221,104.151439 L155.591651,105.710686 Z M168.630433,107.291206 L170.912619,104.873288 L169.320188,103.314042 L167.038002,105.731959 L168.630433,107.291206 Z M153.938702,119.000993 L156.220888,116.583075 L154.628458,115.023829 L152.346271,117.441746 L153.938702,119.000993 Z M166.977483,120.581512 L169.259669,118.163595 L167.667239,116.604349 L165.385053,119.022266 L166.977483,120.581512 Z M164.137594,183.2185 L166.41978,180.800583 L164.82735,179.241336 L162.545164,181.659254 L164.137594,183.2185 Z M177.176375,184.79902 L179.458562,182.381103 L177.866131,180.821856 L175.583945,183.239774 L177.176375,184.79902 Z M162.484645,196.508807 L164.766831,194.09089 L163.1744,192.531643 L160.892214,194.949561 L162.484645,196.508807 Z M175.523426,198.089327 L177.805612,195.67141 L176.213182,194.112163 L173.930996,196.53008 L175.523426,198.089327 Z M201.762526,199.00998 L204.044712,196.592063 L202.452282,195.032817 L200.170096,197.450734 L201.762526,199.00998 Z M214.801307,200.5905 L217.083493,198.172583 L215.491063,196.613337 L213.208877,199.031254 L214.801307,200.5905 Z M200.109577,212.300287 L202.391763,209.88237 L200.799332,208.323124 L198.517146,210.741041 L200.109577,212.300287 Z M213.148358,213.880807 L215.430544,211.46289 L213.838114,209.903644 L211.555927,212.321561 L213.148358,213.880807 Z M197.336063,160.659242 L199.618249,158.241325 L198.025819,156.682079 L195.743633,159.099996 L197.336063,160.659242 Z M210.374845,162.239762 L212.657031,159.821845 L211.0646,158.262598 L208.782414,160.680516 L210.374845,162.239762 Z M195.683114,173.949549 L197.9653,171.531632 L196.37287,169.972385 L194.090683,172.390303 L195.683114,173.949549 Z M208.721895,175.530069 L211.004081,173.112152 L209.411651,171.552905 L207.129465,173.970823 L208.721895,175.530069 Z M150.22279,251.904195 L152.504976,249.486278 L150.912546,247.927032 L148.63036,250.344949 L150.22279,251.904195 Z M163.261571,253.484715 L165.543758,251.066798 L163.951327,249.507552 L161.669141,251.925469 L163.261571,253.484715 Z M148.569841,265.194502 L150.852027,262.776585 L149.259596,261.217339 L146.97741,263.635256 L148.569841,265.194502 Z M161.608622,266.775022 L163.890808,264.357105 L162.298378,262.797859 L160.016192,265.215776 L161.608622,266.775022 Z M187.847722,267.695676 L190.129908,265.277759 L188.537478,263.718512 L186.255291,266.13643 L187.847722,267.695676 Z M200.886503,269.276196 L203.168689,266.858279 L201.576259,265.299032 L199.294073,267.71695 L200.886503,269.276196 Z M186.194772,280.985983 L188.476959,278.568066 L186.884528,277.008819 L184.602342,279.426737 L186.194772,280.985983 Z M199.233554,282.566503 L201.51574,280.148586 L199.92331,278.589339 L197.641123,281.007257 L199.233554,282.566503 Z M183.421259,229.344938 L185.703445,226.92702 L184.111015,225.367774 L181.828829,227.785691 L183.421259,229.344938 Z M196.460041,230.925458 L198.742227,228.50754 L197.149796,226.948294 L194.86761,229.366211 L196.460041,230.925458 Z M181.76831,242.635245 L184.050496,240.217327 L182.458066,238.658081 L180.175879,241.075998 L181.76831,242.635245 Z M194.807091,244.215764 L197.089277,241.797847 L195.496847,240.238601 L193.214661,242.656518 L194.807091,244.215764 Z M80.6487699,73.3213871 L82.9309561,70.9034698 L81.3385256,69.3442235 L79.0563395,71.7621408 L80.6487699,73.3213871 Z M93.6875513,74.901907 L95.9697375,72.4839897 L94.377307,70.9247434 L92.0951209,73.3426607 L93.6875513,74.901907 Z M78.9958205,86.611694 L81.2780066,84.1937768 L79.6855762,82.6345305 L77.4033901,85.0524477 L78.9958205,86.611694 Z M92.0346019,88.1922139 L94.316788,85.7742967 L92.7243576,84.2150504 L90.4421715,86.6329676 L92.0346019,88.1922139 Z M118.273702,89.1128676 L120.555888,86.6949503 L118.963458,85.135704 L116.681271,87.5536212 L118.273702,89.1128676 Z M131.312483,90.6933875 L133.594669,88.2754702 L132.002239,86.7162239 L129.720053,89.1341411 L131.312483,90.6933875 Z M116.620752,102.403175 L118.902939,99.9852573 L117.310508,98.426011 L115.028322,100.843928 L116.620752,102.403175 Z M129.659534,103.983694 L131.94172,101.565777 L130.349289,100.006531 L128.067103,102.424448 L129.659534,103.983694 Z M113.847239,50.7621292 L116.129425,48.344212 L114.536995,46.7849657 L112.254809,49.2028829 L113.847239,50.7621292 Z M126.886021,52.3426491 L129.168207,49.9247319 L127.575776,48.3654856 L125.29359,50.7834028 L126.886021,52.3426491 Z M112.19429,64.0524362 L114.476476,61.6345189 L112.884045,60.0752726 L110.601859,62.4931898 L112.19429,64.0524362 Z M125.233071,65.6329561 L127.515257,63.2150388 L125.922827,61.6557925 L123.640641,64.0737097 L125.233071,65.6329561 Z" id="Combined-Shape" stroke="#FDFDFD"></path>
            </g>
        </g>
    </g>
</svg>