<?xml version="1.0" encoding="UTF-8" standalone="no"?>
<svg width="400px" height="400px" viewBox="0 0 400 400" version="1.1" xmlns="http://www.w3.org/2000/svg" xmlns:xlink="http://www.w3.org/1999/xlink">
    <!-- Generator: Sketch 40.2 (33826) - http://www.bohemiancoding.com/sketch -->
    <title>strawberry outline slice</title>
    <desc>Created with Sketch.</desc>
    <defs>
        <path d="M187.41876,94.4902411 C180.576463,60.2569705 155.022143,41.0806348 156.661861,24.1370948 C156.740819,23.321203 156.485115,11.0344671 156.661861,10.2028326 C157.841175,4.65384947 157.957694,3.17273824 160.773131,4.42473063 C165.888329,6.69940128 172.947447,17.9958006 179.201876,30.30902 C185.221954,42.1608665 190.87771,54.5943842 194.999836,68.0081214 C197.402965,75.8281033 199.06599,80.9056852 198.510494,93.1408556 C216.598174,67.2429807 186.328637,44.6342755 196.861494,18.566996 C197.242123,17.6249939 198.02002,5.36107427 198.510494,4.42473063 C201.179017,-0.669646029 200.91287,-1.21118521 203.345306,4.42473063 C208.099335,15.4397421 216.382579,34.2963685 219.57444,55.7009881 C220.454169,61.6004559 222.273686,68.3584845 222.213198,74.4994753 C222.120996,83.8602625 219.762281,91.7961031 219.57444,93.1408556 C219.000693,97.2483012 211.481686,104.273244 214.308453,103.193949 C231.699599,96.5537951 234.332074,87.1510758 244.841701,83.0877619 C250.671246,80.8338977 262.145639,79.0431855 272.234305,83.0877619 C279.111961,85.8450346 298.008958,83.0877619 289.712169,90.9782805 C278.703989,101.447422 265.01185,104.218691 252.622275,111.401976 C243.135326,116.902364 203.080983,111.970359 231.188613,119.432202 C247.881731,123.86379 276.659202,111.602875 278.557523,111.401976 C298.751284,109.264879 301.535873,131.228584 303.228426,138.69546 C303.383683,139.380391 291.654822,138.69546 276.22335,134.842809 C260.791878,130.990157 233.271169,127.990155 226.071066,130.990157 C224.79953,131.519956 223.507996,131.960332 222.207486,132.322562 C223.937131,134.946551 225.551256,137.591614 227.034634,140.244532 C237.806752,159.509706 246.138464,241.370948 172.223009,269.221442 C154.122477,276.041515 136.042791,283.477781 118.735448,289.97425 C65.3664079,310.006807 19.3413021,321.103174 2.69474618,277.640303 C-9.59574578,245.550778 24.3305431,169.695465 52.9208719,124.398873 C75.6118637,88.4487939 87.2822999,79.7580477 124.242802,70.5545849 C141.47264,66.2642162 165.742631,77.0306502 187.41876,94.4902411 Z" id="path-1"></path>
    </defs>
    <g id="Page-2" stroke="none" stroke-width="1" fill="none" fill-rule="evenodd">
        <g id="Artboard-4" transform="translate(-1574.000000, -442.000000)">
            <g id="strawberry-(outline)" transform="translate(1627.000000, 531.000000)">
                <mask id="mask-2" fill="white">
                    <use xlink:href="#path-1"></use>
                </mask>
                <use id="Mask" stroke="#000000" stroke-width="3" xlink:href="#path-1"></use>
                <path d="M28.9019516,208.975318 L31.1855206,206.546138 L29.5937892,204.981199 L27.3102201,207.410379 L28.9019516,208.975318 Z M41.940733,210.562535 L44.224302,208.133355 L42.6325706,206.568416 L40.3490015,208.997596 L41.940733,210.562535 Z M27.2490022,222.32194 L29.5325712,219.89276 L27.9408397,218.327821 L25.6572707,220.757001 L27.2490022,222.32194 Z M40.2877836,223.909157 L42.5713526,221.479977 L40.9796211,219.915038 L38.6960521,222.344218 L40.2877836,223.909157 Z M66.5268835,224.833712 L68.8104525,222.404532 L67.2187211,220.839593 L64.935152,223.268773 L66.5268835,224.833712 Z M79.5656649,226.420929 L81.8492339,223.991749 L80.2575025,222.42681 L77.9739334,224.85599 L79.5656649,226.420929 Z M64.8739341,238.180334 L67.1575031,235.751153 L65.5657716,234.186214 L63.2822026,236.615395 L64.8739341,238.180334 Z M77.9127155,239.767551 L80.1962845,237.33837 L78.604553,235.773432 L76.320984,238.202612 L77.9127155,239.767551 Z M62.1004209,186.32047 L64.38399,183.89129 L62.7922585,182.326351 L60.5086895,184.755531 L62.1004209,186.32047 Z M75.1392023,187.907687 L77.4227714,185.478507 L75.8310399,183.913568 L73.5474709,186.342748 L75.1392023,187.907687 Z M60.4474715,199.667092 L62.7310405,197.237912 L61.139309,195.672973 L58.85574,198.102153 L60.4474715,199.667092 Z M73.4862529,201.254309 L75.7698219,198.825129 L74.1780904,197.26019 L71.8945214,199.68937 L73.4862529,201.254309 Z M98.4759717,195.179971 L100.759541,192.750791 L99.1678093,191.185852 L96.8842402,193.615032 L98.4759717,195.179971 Z M111.514753,196.767188 L113.798322,194.338008 L112.206591,192.773069 L109.923022,195.202249 L111.514753,196.767188 Z M96.8230223,208.526593 L99.1065913,206.097413 L97.5148598,204.532474 L95.2312908,206.961654 L96.8230223,208.526593 Z M109.861804,210.11381 L112.145373,207.68463 L110.553641,206.119691 L108.270072,208.548871 L109.861804,210.11381 Z M136.100904,211.038365 L138.384473,208.609184 L136.792741,207.044245 L134.509172,209.473426 L136.100904,211.038365 Z M149.139685,212.625582 L151.423254,210.196401 L149.831523,208.631462 L147.547954,211.060643 L149.139685,212.625582 Z M134.447954,224.384986 L136.731523,221.955806 L135.139792,220.390867 L132.856223,222.820047 L134.447954,224.384986 Z M147.486736,225.972203 L149.770305,223.543023 L148.178573,221.978084 L145.895004,224.407264 L147.486736,225.972203 Z M131.674441,172.525123 L133.95801,170.095943 L132.366279,168.531004 L130.08271,170.960184 L131.674441,172.525123 Z M144.713222,174.11234 L146.996791,171.68316 L145.40506,170.118221 L143.121491,172.547401 L144.713222,174.11234 Z M130.021492,185.871745 L132.305061,183.442565 L130.713329,181.877626 L128.42976,184.306806 L130.021492,185.871745 Z M143.060273,187.458962 L145.343842,185.029782 L143.752111,183.464843 L141.468542,185.894023 L143.060273,187.458962 Z M56.7315597,139.998582 L59.0151287,137.569401 L57.4233972,136.004463 L55.1398282,138.433643 L56.7315597,139.998582 Z M69.7703411,141.585799 L72.0539101,139.156618 L70.4621786,137.59168 L68.1786096,140.02086 L69.7703411,141.585799 Z M55.0786102,153.345203 L57.3621792,150.916023 L55.7704478,149.351084 L53.4868787,151.780265 L55.0786102,153.345203 Z M68.1173916,154.932421 L70.4009606,152.50324 L68.8092292,150.938301 L66.5256601,153.367482 L68.1173916,154.932421 Z M94.3564915,155.856975 L96.6400606,153.427795 L95.0483291,151.862856 L92.7647601,154.292036 L94.3564915,155.856975 Z M107.395273,157.444192 L109.678842,155.015012 L108.087111,153.450073 L105.803541,155.879253 L107.395273,157.444192 Z M92.7035421,169.203597 L94.9871111,166.774417 L93.3953797,165.209478 L91.1118106,167.638658 L92.7035421,169.203597 Z M105.742323,170.790814 L108.025893,168.361634 L106.434161,166.796695 L104.150592,169.225875 L105.742323,170.790814 Z M89.930029,117.343734 L92.213598,114.914554 L90.6218665,113.349615 L88.3382975,115.778795 L89.930029,117.343734 Z M102.96881,118.930951 L105.252379,116.501771 L103.660648,114.936832 L101.377079,117.366012 L102.96881,118.930951 Z M88.2770795,130.690356 L90.5606486,128.261175 L88.9689171,126.696236 L86.6853481,129.125417 L88.2770795,130.690356 Z M101.315861,132.277573 L103.59943,129.848392 L102.007698,128.283453 L99.7241295,130.712634 L101.315861,132.277573 Z M14.9871476,264.156708 L17.2707166,261.727527 L15.6789852,260.162588 L13.3954161,262.591769 L14.9871476,264.156708 Z M28.025929,265.743925 L30.309498,263.314744 L28.7177666,261.749805 L26.4341975,264.178986 L28.025929,265.743925 Z M13.3341982,277.503329 L15.6177672,275.074149 L14.0260357,273.50921 L11.7424667,275.93839 L13.3341982,277.503329 Z M26.3729796,279.090546 L28.6565486,276.661366 L27.0648171,275.096427 L24.7812481,277.525607 L26.3729796,279.090546 Z M52.6120795,280.015101 L54.8956485,277.585921 L53.303917,276.020982 L51.020348,278.450162 L52.6120795,280.015101 Z M65.6508609,281.602318 L67.9344299,279.173138 L66.3426984,277.608199 L64.0591294,280.037379 L65.6508609,281.602318 Z M50.95913,293.361723 L53.2426991,290.932543 L51.6509676,289.367604 L49.3673986,291.796784 L50.95913,293.361723 Z M63.9979114,294.94894 L66.2814805,292.51976 L64.689749,290.954821 L62.40618,293.384001 L63.9979114,294.94894 Z M48.1856169,241.50186 L50.4691859,239.072679 L48.8774545,237.507741 L46.5938854,239.936921 L48.1856169,241.50186 Z M61.2243983,243.089077 L63.5079673,240.659896 L61.9162359,239.094958 L59.6326668,241.524138 L61.2243983,243.089077 Z M46.5326675,254.848481 L48.8162365,252.419301 L47.224505,250.854362 L44.940936,253.283543 L46.5326675,254.848481 Z M59.5714489,256.435699 L61.8550179,254.006518 L60.2632864,252.441579 L57.9797174,254.87076 L59.5714489,256.435699 Z M84.5611677,250.36136 L86.8447367,247.93218 L85.2530053,246.367241 L82.9694362,248.796421 L84.5611677,250.36136 Z M97.5999491,251.948577 L99.8835181,249.519397 L98.2917866,247.954458 L96.0082176,250.383638 L97.5999491,251.948577 Z M82.9082183,263.707982 L85.1917873,261.278802 L83.6000558,259.713863 L81.3164868,262.143043 L82.9082183,263.707982 Z M95.9469996,265.295199 L98.2305687,262.866019 L96.6388372,261.30108 L94.3552682,263.73026 L95.9469996,265.295199 Z M122.1861,266.219754 L124.469669,263.790574 L122.877937,262.225635 L120.594368,264.654815 L122.1861,266.219754 Z M135.224881,267.806971 L137.50845,265.377791 L135.916719,263.812852 L133.63315,266.242032 L135.224881,267.806971 Z M120.53315,279.566376 L122.816719,277.137195 L121.224988,275.572256 L118.941419,278.001437 L120.53315,279.566376 Z M133.571932,281.153593 L135.855501,278.724412 L134.263769,277.159473 L131.9802,279.588654 L133.571932,281.153593 Z M117.759637,227.706512 L120.043206,225.277332 L118.451475,223.712393 L116.167906,226.141573 L117.759637,227.706512 Z M130.798418,229.293729 L133.081987,226.864549 L131.490256,225.29961 L129.206687,227.72879 L130.798418,229.293729 Z M116.106688,241.053134 L118.390257,238.623954 L116.798525,237.059015 L114.514956,239.488195 L116.106688,241.053134 Z M129.145469,242.640351 L131.429038,240.211171 L129.837307,238.646232 L127.553737,241.075412 L129.145469,242.640351 Z M126.30558,126.203234 L128.589149,123.774054 L126.997417,122.209115 L124.713848,124.638295 L126.30558,126.203234 Z M139.344361,127.790451 L141.62793,125.361271 L140.036199,123.796332 L137.75263,126.225512 L139.344361,127.790451 Z M124.65263,139.549856 L126.936199,137.120676 L125.344468,135.555737 L123.060899,137.984917 L124.65263,139.549856 Z M137.691412,141.137073 L139.974981,138.707893 L138.383249,137.142954 L136.09968,139.572134 L137.691412,141.137073 Z M163.930512,142.061628 L166.214081,139.632448 L164.622349,138.067509 L162.33878,140.496689 L163.930512,142.061628 Z M176.969293,143.648845 L179.252862,141.219665 L177.661131,139.654726 L175.377562,142.083906 L176.969293,143.648845 Z M162.277562,155.40825 L164.561131,152.97907 L162.9694,151.414131 L160.685831,153.843311 L162.277562,155.40825 Z M175.316344,156.995467 L177.599913,154.566287 L176.008181,153.001348 L173.724612,155.430528 L175.316344,156.995467 Z M159.504049,103.548386 L161.787618,101.119206 L160.195887,99.5542673 L157.912318,101.983447 L159.504049,103.548386 Z M172.54283,105.135603 L174.826399,102.706423 L173.234668,101.141484 L170.951099,103.570664 L172.54283,105.135603 Z M157.8511,116.895008 L160.134669,114.465828 L158.542937,112.900889 L156.259368,115.330069 L157.8511,116.895008 Z M170.889881,118.482225 L173.17345,116.053045 L171.581719,114.488106 L169.29815,116.917286 L170.889881,118.482225 Z M168.049992,181.384624 L170.333561,178.955443 L168.741829,177.390504 L166.45826,179.819685 L168.049992,181.384624 Z M181.088773,182.971841 L183.372342,180.54266 L181.780611,178.977722 L179.497042,181.406902 L181.088773,182.971841 Z M166.397042,194.731245 L168.680611,192.302065 L167.08888,190.737126 L164.805311,193.166307 L166.397042,194.731245 Z M179.435824,196.318462 L181.719393,193.889282 L180.127661,192.324343 L177.844092,194.753524 L179.435824,196.318462 Z M205.674924,197.243017 L207.958493,194.813837 L206.366761,193.248898 L204.083192,195.678078 L205.674924,197.243017 Z M218.713705,198.830234 L220.997274,196.401054 L219.405543,194.836115 L217.121974,197.265295 L218.713705,198.830234 Z M204.021974,210.589639 L206.305543,208.160459 L204.713812,206.59552 L202.430243,209.0247 L204.021974,210.589639 Z M217.060756,212.176856 L219.344325,209.747676 L217.752593,208.182737 L215.469024,210.611917 L217.060756,212.176856 Z M201.248461,158.729776 L203.53203,156.300596 L201.940299,154.735657 L199.65673,157.164837 L201.248461,158.729776 Z M214.287243,160.316993 L216.570812,157.887813 L214.97908,156.322874 L212.695511,158.752054 L214.287243,160.316993 Z M199.595512,172.076398 L201.879081,169.647217 L200.287349,168.082278 L198.00378,170.511459 L199.595512,172.076398 Z M212.634293,173.663615 L214.917862,171.234434 L213.326131,169.669495 L211.042562,172.098676 L212.634293,173.663615 Z M154.135188,250.36136 L156.418757,247.93218 L154.827025,246.367241 L152.543456,248.796421 L154.135188,250.36136 Z M167.173969,251.948577 L169.457538,249.519397 L167.865807,247.954458 L165.582238,250.383638 L167.173969,251.948577 Z M152.482238,263.707982 L154.765807,261.278802 L153.174076,259.713863 L150.890507,262.143043 L152.482238,263.707982 Z M165.52102,265.295199 L167.804589,262.866019 L166.212857,261.30108 L163.929288,263.73026 L165.52102,265.295199 Z M191.76012,266.219754 L194.043689,263.790574 L192.451957,262.225635 L190.168388,264.654815 L191.76012,266.219754 Z M204.798901,267.806971 L207.08247,265.377791 L205.490739,263.812852 L203.20717,266.242032 L204.798901,267.806971 Z M190.10717,279.566376 L192.390739,277.137195 L190.799008,275.572256 L188.515439,278.001437 L190.10717,279.566376 Z M203.145952,281.153593 L205.429521,278.724412 L203.837789,277.159473 L201.55422,279.588654 L203.145952,281.153593 Z M187.333657,227.706512 L189.617226,225.277332 L188.025495,223.712393 L185.741926,226.141573 L187.333657,227.706512 Z M200.372439,229.293729 L202.656008,226.864549 L201.064276,225.29961 L198.780707,227.72879 L200.372439,229.293729 Z M185.680708,241.053134 L187.964277,238.623954 L186.372545,237.059015 L184.088976,239.488195 L185.680708,241.053134 Z M198.719489,242.640351 L201.003058,240.211171 L199.411327,238.646232 L197.127758,241.075412 L198.719489,242.640351 Z M84.5611677,71.0218451 L86.8447367,68.5926649 L85.2530053,67.0277259 L82.9694362,69.4569061 L84.5611677,71.0218451 Z M97.5999491,72.6090621 L99.8835181,70.1798819 L98.2917866,68.6149429 L96.0082176,71.0441231 L97.5999491,72.6090621 Z M82.9082183,84.3684669 L85.1917873,81.9392867 L83.6000558,80.3743477 L81.3164868,82.8035279 L82.9082183,84.3684669 Z M95.9469996,85.9556839 L98.2305687,83.5265037 L96.6388372,81.9615647 L94.3552682,84.3907449 L95.9469996,85.9556839 Z M122.1861,86.8802386 L124.469669,84.4510584 L122.877937,82.8861194 L120.594368,85.3152996 L122.1861,86.8802386 Z M135.224881,88.4674556 L137.50845,86.0382754 L135.916719,84.4733365 L133.63315,86.9025167 L135.224881,88.4674556 Z M120.53315,100.22686 L122.816719,97.7976802 L121.224988,96.2327412 L118.941419,98.6619214 L120.53315,100.22686 Z M133.571932,101.814077 L135.855501,99.3848972 L134.263769,97.8199583 L131.9802,100.249138 L133.571932,101.814077 Z M117.759637,48.3669971 L120.043206,45.9378169 L118.451475,44.372878 L116.167906,46.8020582 L117.759637,48.3669971 Z M130.798418,49.9542141 L133.081987,47.5250339 L131.490256,45.960095 L129.206687,48.3892752 L130.798418,49.9542141 Z M116.106688,61.7136189 L118.390257,59.2844387 L116.798525,57.7194998 L114.514956,60.14868 L116.106688,61.7136189 Z M129.145469,63.300836 L131.429038,60.8716557 L129.837307,59.3067168 L127.553737,61.735897 L129.145469,63.300836 Z M209.08168,128.259299 L211.365249,125.830119 L209.773518,124.26518 L207.489949,126.69436 L209.08168,128.259299 Z M194.389949,140.018704 L196.673518,137.589523 L195.081787,136.024585 L192.798218,138.453765 L194.389949,140.018704 Z M207.428731,141.605921 L209.7123,139.17674 L208.120568,137.611802 L205.836999,140.040982 L207.428731,141.605921 Z" id="Combined-Shape" stroke="#000000" mask="url(#mask-2)"></path>
            </g>
        </g>
    </g>
</svg>