<?xml version="1.0" encoding="UTF-8" standalone="no"?>
<svg width="400px" height="400px" viewBox="0 0 400 400" version="1.1" xmlns="http://www.w3.org/2000/svg" xmlns:xlink="http://www.w3.org/1999/xlink">
    <!-- Generator: Sketch 40.2 (33826) - http://www.bohemiancoding.com/sketch -->
    <title>carrots outline slice</title>
    <desc>Created with Sketch.</desc>
    <defs></defs>
    <g id="Page-2" stroke="none" stroke-width="1" fill="none" fill-rule="evenodd">
        <g id="Artboard-4" transform="translate(-868.000000, -445.000000)" stroke="#000000">
            <g id="carrots-(outline)" transform="translate(1075.144738, 671.110410) rotate(5.000000) translate(-1075.144738, -671.110410) translate(887.644738, 496.110410)">
                <path d="M68.3932999,280.230668 C32.3159528,302.981204 0.551183358,318.94664 0.551183358,318.94664 C0.551183358,318.94664 28.8754423,244.644046 94.5427884,179.732571 C156.967123,118.026778 152.286498,126.982192 170.305859,141.145304 C180.327377,123.914122 187.648229,106.527767 187.714321,98.3217163 C187.724563,97.0500161 183.39437,94.1946677 183.246883,93.2043308 C180.972597,77.9330681 137.165237,92.2355563 138.281264,78.6021413 C138.89452,71.1105959 153.989475,51.5086477 168.44298,44.4866874 C168.44298,32.7834203 176.517127,17.0087624 182.681863,13.3522471 C186.276684,11.2200362 194.237636,17.1370267 204.812719,19.8777596 C207.622116,20.0972427 210.788709,20.4180468 214.249321,20.722582 C223.228687,19.1465587 233.044063,14.7513579 243.824556,13.3522471 C269.603215,10.0066488 299.708749,-6.3734143 314.781647,4.57356181 C329.916297,15.5653868 339.624808,42.3538476 339.084422,69.1667491 C363.104687,93.8338945 378.747746,134.082861 373.162941,144.470742 C370.604465,149.229573 350.541212,146.096223 329.03551,134.08829 C300.828976,146.101652 298.314413,133.44244 270.107879,145.455802 C233.516856,146.385041 213.972651,151.629375 201.126666,163.965662 C194.996281,169.852807 187.666149,177.800692 181.490166,185.149928 C184.137507,186.44378 187.209874,188.482712 191.47732,190.342241 C209.854729,198.350149 204.313972,199.181923 206.069111,209.685153 C206.888469,214.588414 191.832667,248.722013 166.733138,280.190501 C138.067195,316.130374 98.8158123,349.603104 98.8158123,349.603104 C98.8158123,349.603104 102.119146,321.038177 115.778824,283.931291 C82.8332348,312.367993 44.3944762,335.958501 44.3944762,335.958501 C44.3944762,335.958501 51.3914971,311.693008 68.3932999,280.230668 Z" id="Combined-Shape" stroke-width="3"></path>
                <path d="M298.195503,74.9939243 C267.50516,78.797672 187.657756,132.097149 165.395923,194.17322" id="Path-77" stroke-width="3" stroke-linecap="round" transform="translate(231.795713, 134.583572) rotate(-2.000000) translate(-231.795713, -134.583572) "></path>
                <path d="M165.287109,148.105366 C165.287109,148.105366 237.038936,99.594302 260.956211,45.6931198" id="Path-77" stroke-width="3" transform="translate(213.121660, 96.899243) rotate(-7.000000) translate(-213.121660, -96.899243) "></path>
                <g id="bunch" transform="translate(153.280637, 58.893530)" stroke-width="3" stroke-linecap="round">
                    <path d="M150.586662,2.80973653 C116.955933,6.52065428 26.4968472,78.8297978 2.57957153,132.73098" id="Path-77" transform="translate(76.583117, 67.770358) rotate(-2.000000) translate(-76.583117, -67.770358) "></path>
                </g>
                <g id="texture" transform="translate(119.279817, 236.261496) rotate(-18.000000) translate(-119.279817, -236.261496) translate(50.779817, 170.761496)">
                    <path d="M1.22775348,51.8864559 C1.22775348,51.8864559 -0.442433368,56.8806108 3.68326045,65.7617521 C7.80895426,74.6428934 14.119165,79.6370483 14.119165,79.6370483" id="Path-81"></path>
                    <path d="M15.0673687,38.0111597 C15.0673687,38.0111597 13.3971819,43.0053146 17.5228757,51.8864559 C21.6485695,60.7675972 27.9587803,65.7617521 27.9587803,65.7617521" id="Path-81"></path>
                    <path d="M31.028164,38.0111597 C31.028164,38.0111597 29.3579771,43.0053146 33.4836709,51.8864559 C37.6093648,60.7675972 43.9195755,65.7617521 43.9195755,65.7617521" id="Path-81"></path>
                    <path d="M50.6722197,24.1358635 C50.6722197,24.1358635 49.0020328,29.1300184 53.1277266,38.0111597 C57.2534205,46.892301 63.5636312,51.8864559 63.5636312,51.8864559" id="Path-81"></path>
                    <path d="M65.2197607,6.04667315 C65.2197607,6.04667315 63.5495739,11.0408281 67.6752677,19.9219693 C71.8009615,28.8031106 78.1111723,33.7972655 78.1111723,33.7972655" id="Path-81"></path>
                    <path d="M87.4218807,0.542983143 C87.4218807,0.542983143 85.7516939,5.53713806 89.8773877,14.4182793 C94.0030815,23.2994206 100.313292,28.2935755 100.313292,28.2935755" id="Path-81"></path>
                    <path d="M75.9336106,51.6674677 C75.9336106,51.6674677 74.2634238,56.6616226 78.3891176,65.5427639 C82.5148114,74.4239052 88.8250222,79.4180601 88.8250222,79.4180601" id="Path-81" transform="translate(82.212153, 65.542764) rotate(-10.000000) translate(-82.212153, -65.542764) "></path>
                    <path d="M118.040197,50.8849846 C118.040197,50.8849846 116.37001,55.8791395 120.495704,64.7602808 C124.621397,73.6414221 130.931608,78.635577 130.931608,78.635577" id="Path-81" transform="translate(124.318739, 64.760281) rotate(-25.000000) translate(-124.318739, -64.760281) "></path>
                    <path d="M54.3554801,61.9775804 C54.3554801,61.9775804 52.6852933,66.9717353 56.8109871,75.8528766 C60.9366809,84.7340179 70.5958252,87.836087 70.5958252,87.836087" id="Path-81"></path>
                    <path d="M106.305013,79.6417396 C106.305013,79.6417396 106.982066,82.1341258 112.15244,86.5746964 C117.322815,91.0152671 125.230855,93.5123445 125.230855,93.5123445" id="Path-81"></path>
                    <path d="M45.4268788,118.740156 C45.4268788,118.740156 45.9000161,120.780071 49.5131722,124.414494 C53.1263283,128.048916 58.6526173,130.092671 58.6526173,130.092671" id="Path-81"></path>
                    <path d="M84.1389881,87.836087 C84.1389881,87.836087 80.883054,92.2211986 88.9258589,100.019274 C96.9686638,107.817349 106.200676,110.541117 106.200676,110.541117" id="Path-81"></path>
                    <path d="M26.2412931,79.6370483 C26.2412931,79.6370483 23.9509284,83.0421539 29.608585,89.0974775 C35.2662417,95.1528012 42.3574951,100.449993 42.3574951,100.449993" id="Path-81"></path>
                </g>
            </g>
        </g>
    </g>
</svg>