<?xml version="1.0" encoding="UTF-8" standalone="no"?>
<svg width="400px" height="400px" viewBox="0 0 400 400" version="1.1" xmlns="http://www.w3.org/2000/svg" xmlns:xlink="http://www.w3.org/1999/xlink">
    <!-- Generator: Sketch 40.2 (33826) - http://www.bohemiancoding.com/sketch -->
    <title>kale outline slice</title>
    <desc>Created with Sketch.</desc>
    <defs></defs>
    <g id="Page-2" stroke="none" stroke-width="1" fill="none" fill-rule="evenodd">
        <g id="Artboard-4" transform="translate(-111.000000, -523.000000)" stroke="#000000" stroke-width="3">
            <g id="kale-(outline)" transform="translate(295.737598, 758.002170) rotate(-47.000000) translate(-295.737598, -758.002170) translate(80.737598, 655.502170)">
                <g id="leaves" transform="translate(0.020146, -0.000000)">
                    <path d="M105.280492,63.2674108 C69.5337728,56.0812344 50.1410313,56.965066 6.77217314,52.9497911 C-1.65808961,64.6054055 -12.7845407,68.3994192 46.4070629,72.3358233 C59.9276833,73.2349817 71.4201859,74.2373198 81.3176713,75.3256306 C81.3967836,75.7180167 81.4806344,76.1218963 81.5692908,76.5375649 C62.4566568,82.4851465 46.9056599,88.1785117 38.8071716,92.9118975 C22.2838566,102.569407 7.44659416,108.230705 7.44659416,108.230705 L15.8768569,118.554249 C15.8768569,118.554249 45.9865888,103.353223 84.7610447,89.3200994 C85.4694998,91.9102117 86.2687406,94.741257 87.1634626,97.833846 C73.797462,117.633553 97.7776396,122.785239 121.757817,129.668669 C121.757817,145.822468 182.259056,158.569099 200.066904,166.500363 C217.874752,174.431627 225.811953,196.58457 262.079926,203.149491 C301.116087,210.215487 325.411985,190.944399 339.578367,174.431627 C363.744547,180.1752 394.710822,201.615791 418.73071,178.324946 C442.750598,155.034101 414.612292,139.387465 412.932806,122.785239 C411.63949,110.000422 414.471166,104.128302 409.576958,90.0728992 C408.087193,85.7945261 416.245894,67.9621731 400.922862,57.2125524 C385.59983,46.4629317 359.433615,61.8028129 354.125494,60.637088 C354.125494,53.4885152 349.633126,51.0836485 348.32759,44.3130076 C346.158505,33.0639108 348.161083,24.5300165 332.078517,19.7141308 C319.258641,15.8752497 300.167554,37.8622552 286.246106,33.3551165 C275.247409,29.7942332 289.950249,3.14561339 276.662965,0.688545482 C247.427602,-4.71762133 207.935488,23.1720869 193.854864,33.3551165 C179.77424,43.5381462 183.466302,10.4128683 182.498193,10.7397981 C144.448672,23.5890956 127.935574,44.2812841 114.971179,57.1107303 C113.434882,49.1795411 114.679536,44.6243522 114.679536,44.6243522 L99.8422738,46.6224575 C99.8422738,46.6224575 101.533727,53.5921452 105.280492,63.2674108 Z M123.277134,96.4428607 C123.194909,98.8140017 123.152999,101.443821 123.152999,104.359575 C123.152999,115.526851 140.665438,125.690743 157.875939,125.690743 C157.875939,137.396871 201.181803,142.550534 214.086567,148.298061 C226.991331,154.045588 243.311011,177.565909 269.593223,182.323293 C297.88145,187.443788 301.622978,164.007653 311.888891,152.041388 C329.40133,156.203567 352.66388,167.366582 370.070305,150.48847 C387.476731,133.610358 390.157022,122.920145 388.939953,110.889056 C388.00273,101.624318 354.747329,100.886609 351.200657,90.7011195 C350.121073,87.6007227 385.498699,79.3723122 374.3946,71.5824144 C369.202372,67.9398927 356.138829,73.5611118 348.32759,71.5824144 C339.433713,69.3294689 335.951438,59.7042816 333.90348,59.2545262 C333.90348,56.4226349 322.860196,68.3052286 320.10567,67.6819503 C317.821382,67.1650749 315.614846,66.5257975 315.185952,64.3015103 C313.614087,56.1496585 329.047047,42.1682747 317.392538,38.6783601 C308.102394,35.8964488 269.113789,69.5088337 259.025372,66.242658 C251.054976,63.6622026 279.222082,29.9202267 269.593223,28.1396701 C248.407313,24.2219982 219.788672,44.4327558 209.584905,51.8120637 C199.381139,59.1913716 202.056655,35.1865682 201.355098,35.4234835 C186.105935,40.5731155 175.63018,47.4610734 167.722931,54.1621891 C200.457225,49.8259891 212.589327,59.6665459 156.83085,69.2676512 C154.925066,69.5958099 153.011351,69.9463473 151.091766,70.3176903 C150.631353,70.7554453 150.175844,71.1774988 149.723596,71.5824144 C148.904337,72.3159301 148.097042,72.9294257 147.302758,73.4407646 C155.641473,75.7190927 164.776097,78.328896 174.884267,81.3272973 C266.942736,108.634737 330.001102,135.609159 330.001102,135.609159 C330.001102,135.609159 332.68715,140.426 331.843105,142.198496 C331.165484,143.621499 325.436105,145.195653 325.436105,145.195653 C325.436105,145.195653 242.66358,113.296982 189.047109,102.307403 C158.023368,95.9485763 148.676379,89.1437657 126.905746,83.2477684 C129.715891,87.244451 133.130033,91.4770333 137.27264,95.9090555 C158.286993,118.391532 210.447321,111.893898 218.540373,111.893898 C226.633426,111.893898 226.633426,123.216495 226.633426,123.216495 C226.633426,123.216495 158.854113,129.543828 134.237746,108.230705 C130.190655,104.726689 126.544607,100.709598 123.277126,96.4428511 Z" id="Combined-Shape"></path>
                </g>
            </g>
        </g>
    </g>
</svg>