<?xml version="1.0" encoding="UTF-8" standalone="no"?>
<svg width="400px" height="400px" viewBox="0 0 400 400" version="1.1" xmlns="http://www.w3.org/2000/svg" xmlns:xlink="http://www.w3.org/1999/xlink">
    <!-- Generator: Sketch 40.2 (33826) - http://www.bohemiancoding.com/sketch -->
    <title>wheat outline</title>
    <desc>Created with Sketch.</desc>
    <defs></defs>
    <g id="Page-2" stroke="none" stroke-width="1" fill="none" fill-rule="evenodd">
        <g id="wheat" transform="translate(0.000000, -392.000000)">
            <g transform="translate(165.919495, 223.361600) rotate(-17.000000) translate(-165.919495, -223.361600) translate(-53.080505, 109.361600)"></g>
            <g id="wheat-(outline)" transform="translate(165.919495, 623.361600) rotate(-17.000000) translate(-165.919495, -623.361600) translate(-53.080505, 509.361600)" stroke="#000000" stroke-width="3">
                <path d="M0.683920682,140.805456 C0.683920682,140.805456 51.056106,127.180571 84.3792439,119.292479 C94.4911089,116.898848 82.0543738,117.858281 102.978205,112.121487 C107.533075,110.872655 107.895275,110.064197 108.402902,109.25309 C109.075987,108.177606 114.756393,100.935273 123.127079,97.0624036 C137.674555,90.3317153 127.776819,103.516297 127.776819,103.516297 L124.676992,106.384693 L130.101689,104.950495 C130.101689,104.950495 128.551776,100.6479 145.600823,90.6085107 C162.64987,80.5691216 152.575433,94.1940068 152.575433,94.1940068 C152.575433,94.1940068 150.250563,99.2137013 150.250563,99.2137013 C150.250563,99.2137013 155.67526,96.3453044 161.874914,94.1940068 C165.039692,93.0958195 178.923961,86.3059154 178.923961,86.3059154 L184.348658,84.1546177 L178.923961,95.6282052 C178.923961,95.6282052 186.673528,94.911106 190.548311,93.4769076 C194.423095,92.0427091 209.147272,81.2862209 209.147272,81.2862209 C209.147272,81.2862209 216.896839,77.7007248 219.996666,78.417824 C223.096493,79.1349232 214.571969,80.5691216 214.571969,80.5691216 C214.571969,80.5691216 214.571969,84.871717 213.022056,87.7401138 C211.472142,90.6085107 226.971276,83.4375185 226.971276,83.4375185 C226.971276,83.4375185 219.996666,92.7598083 214.571969,94.911106 C209.147272,97.0624036 220.771623,94.911106 220.771623,94.911106 C220.771623,94.911106 227.926042,88.6407845 237.82067,85.5888162 C242.47041,84.1546177 238.595627,88.457213 238.595627,88.457213 C238.595627,88.457213 243.582715,84.6658646 246.345193,84.1546177 C248.749093,83.7097323 254.09476,85.5888162 254.09476,85.5888162 L249.44502,86.3059154 L244.79528,93.4769076 L259.519457,89.8914115 L256.419631,93.4769076 C256.419631,93.4769076 265.719111,90.6085107 267.269024,88.457213 C268.818938,86.3059154 267.269024,91.3256099 267.269024,91.3256099 C267.269024,91.3256099 274.243635,89.1743123 277.343461,88.457213 C280.443288,87.7401138 276.568505,90.6085107 276.568505,90.6085107 L271.143808,98.4966021 L279.668331,97.7795029 C279.668331,97.7795029 287.417898,90.6085107 291.292682,89.8914115 C295.167465,89.1743123 296.717379,87.7401138 296.717379,87.7401138 L297.492335,89.8914115 C297.492335,89.8914115 306.791816,87.0230146 309.891643,88.457213 C312.991469,89.8914115 311.441556,92.0427091 311.441556,92.0427091 L311.441556,94.1940068 C311.441556,94.1940068 321.515993,87.0230146 323.065906,87.0230146 C324.61582,87.0230146 322.29095,92.7598083 322.29095,92.7598083 L317.64121,98.4966021 L327.715647,98.4966021 C327.715647,98.4966021 333.9153,96.3453044 336.24017,97.7795029 C338.56504,99.2137013 349.414434,91.3256099 350.189391,92.7598083 C350.964348,94.1940068 349.414434,95.6282052 349.414434,95.6282052 C349.414434,95.6282052 362.588698,95.6282052 364.138611,97.0624036 C365.688525,98.4966021 363.363655,102.082098 363.363655,102.082098 C363.363655,102.082098 376.537919,103.516297 378.862789,107.101793 C381.187659,110.687289 392.037052,106.384693 395.136879,107.818892 C398.236706,109.25309 386.612356,109.97019 386.612356,109.97019 L385.062442,112.121487 L390.487139,112.838586 L387.387312,115.706983 C387.387312,115.706983 372.663135,113.555686 368.013395,114.989884 C363.363655,116.424083 378.087832,117.141182 378.087832,117.141182 L375.762962,118.57538 L366.463481,119.292479 L367.238438,121.443777 L354.064174,119.292479 L357.938958,122.160876 C357.938958,122.160876 343.214781,121.443777 339.339997,120.009579 C335.465214,118.57538 333.9153,118.57538 333.9153,118.57538 L331.59043,119.292479 C331.59043,119.292479 341.664867,127.180571 343.214781,128.614769 C344.764694,130.048968 345.539651,132.200265 343.989737,133.634464 C342.439824,135.068662 339.339997,130.048968 335.465214,130.048968 C331.59043,130.048968 335.465214,130.766067 335.465214,132.200265 C335.465214,133.634464 325.390777,125.746372 322.29095,122.877975 C319.191123,120.009579 317.64121,117.141182 318.416166,121.443777 C319.191123,125.746372 325.390777,128.614769 319.96608,127.180571 C314.541383,125.746372 316.091296,123.595075 309.116686,123.595075 C302.142076,123.595075 304.466946,122.160876 304.466946,122.160876 C304.466946,122.160876 306.016859,124.312174 309.891643,126.463472 C313.766426,128.614769 318.416166,129.331868 319.191123,130.766067 C319.96608,132.200265 319.191123,132.917365 319.191123,132.917365 C319.191123,132.917365 318.416166,133.634464 313.766426,131.483166 C309.116686,129.331868 306.791816,128.614769 304.466946,127.180571 C302.142076,125.746372 302.917032,125.029273 299.817206,125.029273 C296.717379,125.029273 294.392509,125.029273 292.842595,124.312174 C291.292682,123.595075 293.617552,126.463472 293.617552,126.463472 C293.617552,126.463472 288.967812,127.180571 285.867985,125.029273 C282.768158,122.877975 276.568505,121.443777 276.568505,121.443777 C276.568505,121.443777 290.517725,127.89767 292.067639,129.331868 C293.617552,130.766067 294.392509,132.917365 294.392509,132.917365 C294.392509,132.917365 288.192855,131.483166 285.093028,130.766067 C281.993202,130.048968 281.993202,131.483166 278.118418,130.048968 C274.243635,128.614769 266.494068,122.877975 264.944154,121.443777 C263.394241,120.009579 264.169198,122.877975 265.719111,125.746372 C267.269024,128.614769 270.368851,130.766067 268.043981,130.766067 C265.719111,130.766067 252.544847,126.463472 248.670064,126.463472 C244.79528,126.463472 237.045713,118.57538 235.4958,118.57538 C233.945886,118.57538 237.045713,121.443777 237.82067,123.595075 C238.595627,125.746372 240.920497,127.89767 239.370583,129.331868 C237.82067,130.766067 232.395973,130.048968 232.395973,129.331868 C232.395973,128.614769 237.82067,132.200265 233.945886,132.200265 C230.071103,132.200265 216.896839,124.312174 213.022056,125.029273 C209.147272,125.746372 206.822402,122.877975 206.822402,122.877975 C206.822402,122.877975 209.147272,126.463472 209.147272,127.89767 C209.147272,129.331868 212.247099,130.048968 213.797012,130.048968 C215.346926,130.048968 210.697185,132.917365 208.372315,132.200265 C206.047445,131.483166 202.172662,131.483166 197.522922,130.048968 C192.873181,128.614769 188.998398,127.89767 186.673528,127.180571 C184.348658,126.463472 184.348658,127.180571 184.348658,127.180571 L186.673528,129.331868 C186.673528,129.331868 182.798744,127.180571 179.698918,127.89767 C176.599091,128.614769 171.174394,125.029273 169.624481,125.746372 C168.074567,126.463472 173.499264,127.180571 174.274221,128.614769 C175.049177,130.048968 176.599091,130.048968 177.374048,132.200265 C178.149004,134.351563 177.374048,134.351563 174.274221,134.351563 C171.174394,134.351563 171.174394,132.200265 168.074567,132.200265 C164.97474,132.200265 162.64987,130.766067 159.550043,130.048968 C156.450217,129.331868 154.900303,126.463472 153.35039,127.180571 C151.800477,127.89767 153.35039,125.746372 148.70065,126.463472 C144.05091,127.180571 148.70065,127.89767 150.250563,128.614769 C151.800477,129.331868 151.800477,130.048968 150.250563,130.048968 C148.70065,130.048968 127.776819,127.180571 125.451949,125.746372 C123.127079,124.312174 120.802209,123.595075 120.802209,123.595075 C120.802209,123.595075 117.702382,123.595075 119.252295,124.312174 C120.802209,125.029273 122.352122,127.180571 120.802209,127.180571 C119.252295,127.180571 105.303075,129.331868 102.203248,128.614769 C99.1034211,127.89767 97.5535078,126.463472 95.2286377,126.463472 C92.9037676,126.463472 90.5788975,126.463472 87.4790707,127.180571 C84.3792439,127.89767 -2.4159061,149.410647 -2.4159061,149.410647 L0.683920682,140.805456 Z" id="Path-90" transform="translate(196.623275, 113.866824) rotate(-24.000000) translate(-196.623275, -113.866824) "></path>
                <path d="M42.1725317,191.728697 C42.1725317,191.728697 92.544717,178.103812 125.867855,170.215721 C135.97972,167.822089 123.542985,168.781522 144.466816,163.044729 C149.021686,161.795896 149.383886,160.987438 149.891513,160.176332 C150.564599,159.100848 156.245004,151.858514 164.61569,147.985645 C179.163166,141.254957 169.26543,154.439538 169.26543,154.439538 L166.165603,157.307935 L171.5903,155.873736 C171.5903,155.873736 170.040387,151.571141 187.089434,141.531752 C204.138481,131.492363 194.064044,145.117248 194.064044,145.117248 C194.064044,145.117248 191.739174,150.136943 191.739174,150.136943 C191.739174,150.136943 197.163871,147.268546 203.363525,145.117248 C206.528303,144.019061 220.412572,137.229157 220.412572,137.229157 L225.837269,135.077859 L220.412572,146.551447 C220.412572,146.551447 228.162139,145.834347 232.036922,144.400149 C235.911706,142.965951 250.635883,132.209462 250.635883,132.209462 C250.635883,132.209462 258.38545,128.623966 261.485277,129.341065 C264.585104,130.058165 256.06058,131.492363 256.06058,131.492363 C256.06058,131.492363 256.06058,135.794958 254.510667,138.663355 C252.960753,141.531752 268.459887,134.36076 268.459887,134.36076 C268.459887,134.36076 261.485277,143.68305 256.06058,145.834347 C250.635883,147.985645 262.260234,145.834347 262.260234,145.834347 C262.260234,145.834347 269.414653,139.564026 279.309281,136.512058 C283.959021,135.077859 280.084238,139.380454 280.084238,139.380454 C280.084238,139.380454 285.071326,135.589106 287.833805,135.077859 C290.237704,134.632974 295.583371,136.512058 295.583371,136.512058 L290.933631,137.229157 L286.283891,144.400149 L301.008068,140.814653 L297.908242,144.400149 C297.908242,144.400149 307.207722,141.531752 308.757635,139.380454 C310.307549,137.229157 308.757635,142.248851 308.757635,142.248851 C308.757635,142.248851 315.732246,140.097554 318.832072,139.380454 C321.931899,138.663355 318.057116,141.531752 318.057116,141.531752 L312.632419,149.419843 L321.156942,148.702744 C321.156942,148.702744 328.906509,141.531752 332.781293,140.814653 C336.656076,140.097554 338.20599,138.663355 338.20599,138.663355 L338.980946,140.814653 C338.980946,140.814653 348.280427,137.946256 351.380254,139.380454 C354.48008,140.814653 352.930167,142.965951 352.930167,142.965951 L352.930167,145.117248 C352.930167,145.117248 363.004604,137.946256 364.554517,137.946256 C366.104431,137.946256 363.779561,143.68305 363.779561,143.68305 L359.129821,149.419843 L369.204258,149.419843 C369.204258,149.419843 375.403911,147.268546 377.728781,148.702744 C380.053651,150.136943 390.903045,142.248851 391.678002,143.68305 C392.452959,145.117248 390.903045,146.551447 390.903045,146.551447 C390.903045,146.551447 404.077309,146.551447 405.627222,147.985645 C407.177136,149.419843 404.852266,153.00534 404.852266,153.00534 C404.852266,153.00534 418.02653,154.439538 420.3514,158.025034 C422.67627,161.61053 433.525663,157.307935 436.62549,158.742133 C439.725317,160.176332 428.100967,160.893431 428.100967,160.893431 L426.551053,163.044729 L431.97575,163.761828 L428.875923,166.630225 C428.875923,166.630225 414.151746,164.478927 409.502006,165.913125 C404.852266,167.347324 419.576443,168.064423 419.576443,168.064423 L417.251573,169.498622 L407.952092,170.215721 L408.727049,172.367018 L395.552785,170.215721 L399.427569,173.084118 C399.427569,173.084118 384.703392,172.367018 380.828608,170.93282 C376.953825,169.498622 375.403911,169.498622 375.403911,169.498622 L373.079041,170.215721 C373.079041,170.215721 383.153478,178.103812 384.703392,179.538011 C386.253305,180.972209 387.028262,183.123507 385.478348,184.557705 C383.928435,185.991904 380.828608,180.972209 376.953825,180.972209 C373.079041,180.972209 376.953825,181.689308 376.953825,183.123507 C376.953825,184.557705 366.879388,176.669614 363.779561,173.801217 C360.679734,170.93282 359.129821,168.064423 359.904777,172.367018 C360.679734,176.669614 366.879388,179.538011 361.454691,178.103812 C356.029994,176.669614 357.579907,174.518316 350.605297,174.518316 C343.630687,174.518316 345.955557,173.084118 345.955557,173.084118 C345.955557,173.084118 347.50547,175.235415 351.380254,177.386713 C355.255037,179.538011 359.904777,180.25511 360.679734,181.689308 C361.454691,183.123507 360.679734,183.840606 360.679734,183.840606 C360.679734,183.840606 359.904777,184.557705 355.255037,182.406407 C350.605297,180.25511 348.280427,179.538011 345.955557,178.103812 C343.630687,176.669614 344.405643,175.952515 341.305817,175.952515 C338.20599,175.952515 335.88112,175.952515 334.331206,175.235415 C332.781293,174.518316 335.106163,177.386713 335.106163,177.386713 C335.106163,177.386713 330.456423,178.103812 327.356596,175.952515 C324.256769,173.801217 318.057116,172.367018 318.057116,172.367018 C318.057116,172.367018 332.006336,178.820911 333.55625,180.25511 C335.106163,181.689308 335.88112,183.840606 335.88112,183.840606 C335.88112,183.840606 329.681466,182.406407 326.581639,181.689308 C323.481813,180.972209 323.481813,182.406407 319.607029,180.972209 C315.732246,179.538011 307.982679,173.801217 306.432765,172.367018 C304.882852,170.93282 305.657809,173.801217 307.207722,176.669614 C308.757635,179.538011 311.857462,181.689308 309.532592,181.689308 C307.207722,181.689308 294.033458,177.386713 290.158675,177.386713 C286.283891,177.386713 278.534324,169.498622 276.984411,169.498622 C275.434497,169.498622 278.534324,172.367018 279.309281,174.518316 C280.084238,176.669614 282.409108,178.820911 280.859194,180.25511 C279.309281,181.689308 273.884584,180.972209 273.884584,180.25511 C273.884584,179.538011 279.309281,183.123507 275.434497,183.123507 C271.559714,183.123507 258.38545,175.235415 254.510667,175.952515 C250.635883,176.669614 248.311013,173.801217 248.311013,173.801217 C248.311013,173.801217 250.635883,177.386713 250.635883,178.820911 C250.635883,180.25511 253.73571,180.972209 255.285623,180.972209 C256.835537,180.972209 252.185796,183.840606 249.860926,183.123507 C247.536056,182.406407 243.661273,182.406407 239.011533,180.972209 C234.361792,179.538011 230.487009,178.820911 228.162139,178.103812 C225.837269,177.386713 225.837269,178.103812 225.837269,178.103812 L228.162139,180.25511 C228.162139,180.25511 224.287355,178.103812 221.187529,178.820911 C218.087702,179.538011 212.663005,175.952515 211.113092,176.669614 C209.563178,177.386713 214.987875,178.103812 215.762832,179.538011 C216.537788,180.972209 218.087702,180.972209 218.862659,183.123507 C219.637615,185.274804 218.862659,185.274804 215.762832,185.274804 C212.663005,185.274804 212.663005,183.123507 209.563178,183.123507 C206.463351,183.123507 204.138481,181.689308 201.038655,180.972209 C197.938828,180.25511 196.388914,177.386713 194.839001,178.103812 C193.289088,178.820911 194.839001,176.669614 190.189261,177.386713 C185.539521,178.103812 190.189261,178.820911 191.739174,179.538011 C193.289088,180.25511 193.289088,180.972209 191.739174,180.972209 C190.189261,180.972209 169.26543,178.103812 166.94056,176.669614 C164.61569,175.235415 162.29082,174.518316 162.29082,174.518316 C162.29082,174.518316 159.190993,174.518316 160.740906,175.235415 C162.29082,175.952515 163.840733,178.103812 162.29082,178.103812 C160.740906,178.103812 146.791686,180.25511 143.691859,179.538011 C140.592032,178.820911 139.042119,177.386713 136.717249,177.386713 C134.392379,177.386713 132.067509,177.386713 128.967682,178.103812 C125.867855,178.820911 39.0727049,200.333888 39.0727049,200.333888 L42.1725317,191.728697 Z" id="Path-90" fill="#FFFFFF"></path>
                <path d="M15.6215877,167.511377 C15.6215877,167.511377 65.993773,153.886492 99.3169109,145.9984 C109.428776,143.604769 96.9920409,144.564202 117.915872,138.827408 C122.470742,137.578576 122.832942,136.770118 123.340569,135.959011 C124.013655,134.883527 129.69406,127.641194 138.064746,123.768325 C152.612222,117.037636 142.714486,130.222218 142.714486,130.222218 L139.614659,133.090614 L145.039356,131.656416 C145.039356,131.656416 143.489443,127.353821 160.53849,117.314432 C177.587537,107.275043 167.5131,120.899928 167.5131,120.899928 C167.5131,120.899928 165.18823,125.919622 165.18823,125.919622 C165.18823,125.919622 170.612927,123.051225 176.812581,120.899928 C179.977359,119.80174 193.861628,113.011836 193.861628,113.011836 L199.286325,110.860539 L193.861628,122.334126 C193.861628,122.334126 201.611195,121.617027 205.485978,120.182828 C209.360762,118.74863 224.084939,107.992142 224.084939,107.992142 C224.084939,107.992142 231.834506,104.406646 234.934333,105.123745 C238.03416,105.840844 229.509636,107.275043 229.509636,107.275043 C229.509636,107.275043 229.509636,111.577638 227.959723,114.446035 C226.409809,117.314432 241.908943,110.143439 241.908943,110.143439 C241.908943,110.143439 234.934333,119.465729 229.509636,121.617027 C224.084939,123.768325 235.70929,121.617027 235.70929,121.617027 C235.70929,121.617027 242.863709,115.346705 252.758337,112.294737 C257.408077,110.860539 253.533294,115.163134 253.533294,115.163134 C253.533294,115.163134 258.520382,111.371786 261.282861,110.860539 C263.68676,110.415653 269.032427,112.294737 269.032427,112.294737 L264.382687,113.011836 L259.732947,120.182828 L274.457124,116.597332 L271.357298,120.182828 C271.357298,120.182828 280.656778,117.314432 282.206691,115.163134 C283.756605,113.011836 282.206691,118.031531 282.206691,118.031531 C282.206691,118.031531 289.181302,115.880233 292.281128,115.163134 C295.380955,114.446035 291.506172,117.314432 291.506172,117.314432 L286.081475,125.202523 L294.605998,124.485424 C294.605998,124.485424 302.355565,117.314432 306.230349,116.597332 C310.105132,115.880233 311.655046,114.446035 311.655046,114.446035 L312.430003,116.597332 C312.430003,116.597332 321.729483,113.728936 324.82931,115.163134 C327.929136,116.597332 326.379223,118.74863 326.379223,118.74863 L326.379223,120.899928 C326.379223,120.899928 336.45366,113.728936 338.003573,113.728936 C339.553487,113.728936 337.228617,119.465729 337.228617,119.465729 L332.578877,125.202523 L342.653314,125.202523 C342.653314,125.202523 348.852967,123.051225 351.177837,124.485424 C353.502707,125.919622 364.352101,118.031531 365.127058,119.465729 C365.902015,120.899928 364.352101,122.334126 364.352101,122.334126 C364.352101,122.334126 377.526365,122.334126 379.076278,123.768325 C380.626192,125.202523 378.301322,128.788019 378.301322,128.788019 C378.301322,128.788019 391.475586,130.222218 393.800456,133.807714 C396.125326,137.39321 406.974719,133.090614 410.074546,134.524813 C413.174373,135.959011 401.550023,136.67611 401.550023,136.67611 L400.000109,138.827408 L405.424806,139.544507 L402.324979,142.412904 C402.324979,142.412904 387.600802,140.261607 382.951062,141.695805 C378.301322,143.130003 393.025499,143.847103 393.025499,143.847103 L390.700629,145.281301 L381.401148,145.9984 L382.176105,148.149698 L369.001841,145.9984 L372.876625,148.866797 C372.876625,148.866797 358.152448,148.149698 354.277664,146.7155 C350.402881,145.281301 348.852967,145.281301 348.852967,145.281301 L346.528097,145.9984 C346.528097,145.9984 356.602534,153.886492 358.152448,155.32069 C359.702361,156.754889 360.477318,158.906186 358.927404,160.340385 C357.377491,161.774583 354.277664,156.754889 350.402881,156.754889 C346.528097,156.754889 350.402881,157.471988 350.402881,158.906186 C350.402881,160.340385 340.328444,152.452293 337.228617,149.583896 C334.12879,146.7155 332.578877,143.847103 333.353833,148.149698 C334.12879,152.452293 340.328444,155.32069 334.903747,153.886492 C329.47905,152.452293 331.028963,150.300996 324.054353,150.300996 C317.079743,150.300996 319.404613,148.866797 319.404613,148.866797 C319.404613,148.866797 320.954526,151.018095 324.82931,153.169392 C328.704093,155.32069 333.353833,156.037789 334.12879,157.471988 C334.903747,158.906186 334.12879,159.623285 334.12879,159.623285 C334.12879,159.623285 333.353833,160.340385 328.704093,158.189087 C324.054353,156.037789 321.729483,155.32069 319.404613,153.886492 C317.079743,152.452293 317.854699,151.735194 314.754873,151.735194 C311.655046,151.735194 309.330176,151.735194 307.780262,151.018095 C306.230349,150.300996 308.555219,153.169392 308.555219,153.169392 C308.555219,153.169392 303.905479,153.886492 300.805652,151.735194 C297.705825,149.583896 291.506172,148.149698 291.506172,148.149698 C291.506172,148.149698 305.455392,154.603591 307.005306,156.037789 C308.555219,157.471988 309.330176,159.623285 309.330176,159.623285 C309.330176,159.623285 303.130522,158.189087 300.030695,157.471988 C296.930869,156.754889 296.930869,158.189087 293.056085,156.754889 C289.181302,155.32069 281.431735,149.583896 279.881821,148.149698 C278.331908,146.7155 279.106865,149.583896 280.656778,152.452293 C282.206691,155.32069 285.306518,157.471988 282.981648,157.471988 C280.656778,157.471988 267.482514,153.169392 263.607731,153.169392 C259.732947,153.169392 251.98338,145.281301 250.433467,145.281301 C248.883553,145.281301 251.98338,148.149698 252.758337,150.300996 C253.533294,152.452293 255.858164,154.603591 254.30825,156.037789 C252.758337,157.471988 247.33364,156.754889 247.33364,156.037789 C247.33364,155.32069 252.758337,158.906186 248.883553,158.906186 C245.00877,158.906186 231.834506,151.018095 227.959723,151.735194 C224.084939,152.452293 221.760069,149.583896 221.760069,149.583896 C221.760069,149.583896 224.084939,153.169392 224.084939,154.603591 C224.084939,156.037789 227.184766,156.754889 228.734679,156.754889 C230.284593,156.754889 225.634852,159.623285 223.309982,158.906186 C220.985112,158.189087 217.110329,158.189087 212.460589,156.754889 C207.810848,155.32069 203.936065,154.603591 201.611195,153.886492 C199.286325,153.169392 199.286325,153.886492 199.286325,153.886492 L201.611195,156.037789 C201.611195,156.037789 197.736411,153.886492 194.636585,154.603591 C191.536758,155.32069 186.112061,151.735194 184.562148,152.452293 C183.012234,153.169392 188.436931,153.886492 189.211888,155.32069 C189.986844,156.754889 191.536758,156.754889 192.311715,158.906186 C193.086671,161.057484 192.311715,161.057484 189.211888,161.057484 C186.112061,161.057484 186.112061,158.906186 183.012234,158.906186 C179.912407,158.906186 177.587537,157.471988 174.487711,156.754889 C171.387884,156.037789 169.83797,153.169392 168.288057,153.886492 C166.738144,154.603591 168.288057,152.452293 163.638317,153.169392 C158.988577,153.886492 163.638317,154.603591 165.18823,155.32069 C166.738144,156.037789 166.738144,156.754889 165.18823,156.754889 C163.638317,156.754889 142.714486,153.886492 140.389616,152.452293 C138.064746,151.018095 135.739876,150.300996 135.739876,150.300996 C135.739876,150.300996 132.640049,150.300996 134.189962,151.018095 C135.739876,151.735194 137.289789,153.886492 135.739876,153.886492 C134.189962,153.886492 120.240742,156.037789 117.140915,155.32069 C114.041088,154.603591 112.491175,153.169392 110.166305,153.169392 C107.841435,153.169392 105.516565,153.169392 102.416738,153.886492 C99.3169109,154.603591 12.5217609,176.116567 12.5217609,176.116567 L15.6215877,167.511377 Z" id="Path-90" fill="#FFFFFF" transform="translate(211.560942, 140.572745) rotate(-11.000000) translate(-211.560942, -140.572745) "></path>
            </g>
        </g>
    </g>
</svg>